<?xml version="1.0" standalone="no"?>
<!DOCTYPE svg PUBLIC "-//W3C//DTD SVG 20010904//EN"
 "http://www.w3.org/TR/2001/REC-SVG-20010904/DTD/svg10.dtd">
<svg version="1.0" xmlns="http://www.w3.org/2000/svg"
 width="512.000000pt" height="512.000000pt" viewBox="0 0 512.000000 512.000000"
 preserveAspectRatio="xMidYMid meet">
<metadata>
Created by potrace 1.11, written by Peter Selinger 2001-2013
</metadata>
<g transform="translate(0.000000,512.000000) scale(0.100000,-0.100000)"
fill="#000000" stroke="none">
<path d="M2345 5114 c-16 -2 -84 -11 -150 -20 -607 -81 -1200 -412 -1601 -894
-304 -365 -497 -796 -570 -1275 -26 -170 -26 -560 0 -730 123 -807 596 -1488
1303 -1879 56 -31 104 -56 106 -56 3 0 7 9 10 21 5 19 10 20 84 14 l79 -7 78
143 c42 79 122 236 178 349 56 113 129 255 163 315 73 129 235 439 235 449 0
3 -32 -10 -71 -30 -54 -27 -91 -38 -148 -43 -121 -13 -142 -25 -175 -109 -16
-40 -38 -80 -50 -89 -21 -18 -21 -18 -5 2 9 11 29 55 44 97 l27 77 61 20 c34
12 84 21 111 21 40 -1 69 8 137 42 l87 43 56 110 c31 61 57 124 58 140 1 17 4
35 7 40 3 6 7 21 9 35 2 14 25 63 52 109 27 46 46 89 43 97 -3 7 -19 16 -36
18 -151 24 -232 27 -530 24 -180 -2 -327 -1 -327 1 0 3 67 93 149 200 81 108
188 255 236 326 92 136 180 255 250 340 23 28 106 136 185 240 161 214 395
508 454 573 28 31 34 42 22 42 -10 0 -14 5 -11 10 3 6 15 10 25 10 12 0 96
100 255 305 130 168 239 305 242 305 3 0 -8 -24 -25 -52 -108 -193 -273 -512
-287 -553 -9 -28 -63 -140 -118 -250 -56 -110 -102 -202 -102 -205 -1 -3 -13
-25 -29 -49 -15 -24 -51 -83 -79 -130 -27 -47 -67 -111 -88 -142 -48 -72 -229
-402 -229 -419 0 -9 12 -10 45 -6 24 4 75 9 112 11 l67 4 27 60 27 60 70 20
c38 12 73 21 78 21 5 -1 26 -23 47 -50 l38 -50 78 0 77 0 16 -33 16 -33 138
-14 c77 -7 178 -16 225 -19 l86 -6 -221 -271 c-122 -149 -303 -372 -403 -495
-114 -139 -178 -226 -171 -230 6 -4 52 -10 102 -14 50 -4 103 -14 119 -21 39
-21 33 -27 -9 -9 -30 12 -40 13 -52 3 -13 -10 -14 -10 -8 0 5 8 -1 12 -21 13
-15 0 -58 3 -95 7 l-67 8 -183 -220 c-399 -480 -950 -1152 -954 -1162 -9 -21
15 -64 36 -64 11 0 20 6 20 14 0 24 20 29 61 16 32 -11 44 -11 64 0 19 10 27
10 39 1 21 -18 36 -5 37 32 1 24 3 26 6 10 2 -13 11 -23 19 -23 26 0 14 -16
-22 -29 -28 -10 -33 -15 -24 -27 20 -23 75 -28 108 -8 30 17 34 16 82 -11 14
-8 48 -15 75 -16 28 0 70 -4 95 -8 44 -7 43 -7 -35 -14 -44 -4 -131 -10 -194
-12 -62 -3 -118 -8 -124 -12 -6 -3 -29 -6 -51 -5 -37 1 -39 0 -16 -9 46 -19
264 -68 380 -86 87 -14 175 -18 360 -18 277 0 388 13 625 72 911 227 1631 947
1858 1858 58 235 71 348 72 625 0 277 -13 387 -72 625 -181 727 -682 1345
-1358 1675 -237 115 -492 195 -755 236 -100 15 -513 28 -585 18z m974 -596
c-16 -32 -102 -138 -111 -138 -15 0 -8 17 23 61 37 52 91 110 97 105 2 -2 -2
-15 -9 -28z m-998 -549 l48 -30 80 11 c44 7 85 10 92 8 7 -2 -31 -10 -84 -17
l-96 -12 -42 30 -42 31 -138 0 -137 0 -37 -57 c-36 -57 -37 -59 -32 -139 3
-45 2 -86 -2 -92 -7 -12 -82 -44 -88 -38 -3 2 16 13 40 24 l45 20 -5 80 c-6
79 -5 81 33 146 l38 66 140 0 c138 0 140 0 187 -31z m324 -49 c10 -11 16 -20
13 -20 -3 0 -13 9 -23 20 -10 11 -16 20 -13 20 3 0 13 -9 23 -20z m90 -53 l30
-4 -31 -2 c-21 -1 -37 6 -50 22 -19 22 -19 22 1 5 11 -9 34 -18 50 -21z m108
6 c-13 -2 -33 -2 -45 0 -13 2 -3 4 22 4 25 0 35 -2 23 -4z m456 -115 c-29 -74
-106 -220 -135 -254 l-24 -29 11 30 c28 81 149 305 164 305 2 0 -5 -24 -16
-52z m-142 26 c-3 -3 -12 -4 -19 -1 -8 3 -5 6 6 6 11 1 17 -2 13 -5z m-1320
-181 c-3 -10 -5 -2 -5 17 0 19 2 27 5 18 2 -10 2 -26 0 -35z m1263 -14 l-44
-38 29 -31 c16 -16 27 -31 24 -33 -21 -18 -86 -57 -94 -57 -5 0 12 14 40 31
l49 32 -27 23 c-15 13 -27 27 -27 31 0 11 84 89 90 85 3 -2 -15 -21 -40 -43z
m-1337 -125 c-72 -66 -95 -76 -146 -64 -29 7 -26 8 20 9 50 1 56 4 118 62 46
43 65 69 66 88 2 25 2 24 6 -4 4 -26 -3 -37 -64 -91z m1224 -30 c-3 -3 -12 -4
-19 -1 -8 3 -5 6 6 6 11 1 17 -2 13 -5z m-534 -23 c-7 -28 -73 -89 -73 -68 0
17 56 87 70 87 5 0 6 -8 3 -19z m-960 -18 c-39 -2 -76 -9 -81 -16 -12 -14 -82
-236 -82 -259 0 -9 23 -35 50 -59 28 -24 50 -49 50 -55 0 -7 -18 -34 -41 -60
-22 -27 -44 -58 -49 -69 -7 -15 -9 -16 -9 -4 -1 9 20 42 46 73 l46 57 -57 58
c-53 54 -56 59 -46 85 5 15 22 69 36 119 38 136 39 137 132 135 l77 -2 -72 -3z
m1442 -139 c40 -37 42 -40 10 -15 -61 46 -102 83 -80 72 11 -6 43 -31 70 -57z
m65 -64 c0 -5 -12 -10 -27 -9 l-28 1 25 8 c14 4 26 8 28 9 1 1 2 -3 2 -9z
m-82 -35 c-6 -14 -15 -25 -20 -25 -9 0 -4 14 15 38 15 19 18 14 5 -13z m-799
-177 c-52 -98 -373 -508 -387 -494 -8 9 49 97 153 235 162 214 279 344 234
259z m621 -33 c0 -16 -32 -63 -59 -89 -58 -56 -48 -2 12 62 28 29 47 40 47 27z
m-1383 -147 c-3 -8 -6 -5 -6 6 -1 11 2 17 5 13 3 -3 4 -12 1 -19z m2333 -85
c-24 -37 -87 -129 -140 -205 -120 -169 -125 -189 -80 -323 26 -77 29 -98 24
-153 -7 -60 -11 -70 -66 -136 -67 -82 -144 -146 -173 -145 -17 0 -17 2 4 10
40 16 104 73 163 146 50 62 56 74 61 130 6 55 3 74 -24 149 -24 66 -30 95 -25
127 5 39 5 40 -9 23 -40 -52 -6 7 81 141 99 152 216 314 223 308 2 -2 -16 -35
-39 -72z m-2311 17 c0 -9 -4 -8 -9 5 -5 11 -9 27 -9 35 0 9 4 8 9 -5 5 -11 9
-27 9 -35z m8 -42 c-3 -8 -6 -5 -6 6 -1 11 2 17 5 13 3 -3 4 -12 1 -19z m22
-63 c0 -5 -4 -3 -9 5 -5 8 -9 22 -9 30 0 16 17 -16 18 -35z m989 -671 c-18
-43 -114 -205 -138 -234 l-21 -25 7 25 c19 68 147 280 161 266 2 -2 -2 -16 -9
-32z m617 -219 c-25 -34 -45 -45 -45 -25 0 16 64 83 68 71 2 -6 -8 -27 -23
-46z m205 8 c-22 -9 -30 -24 -30 -61 0 -30 -5 -34 -57 -57 -31 -14 -58 -23
-60 -21 -2 2 21 14 51 27 47 19 56 27 56 48 0 48 11 71 34 70 14 0 16 -2 6 -6z
m-1493 -519 c-3 -3 -12 -4 -19 -1 -8 3 -5 6 6 6 11 1 17 -2 13 -5z m-79 -33
c-9 -14 -8 -27 5 -60 23 -55 20 -66 -3 -16 -22 48 -24 67 -8 83 17 17 20 15 6
-7z m60 -310 c16 -13 16 -13 -1 -7 -10 3 -21 6 -23 6 -2 0 -3 28 -2 63 l2 62
3 -55 c3 -37 10 -60 21 -69z m-351 -256 c37 -80 40 -117 3 -44 -26 50 -51 119
-44 119 3 0 21 -34 41 -75z m-266 -2 c13 -16 12 -17 -3 -4 -10 7 -18 15 -18
17 0 8 8 3 21 -13z m439 -132 c5 -30 10 -68 9 -85 l-1 -31 -9 31 c-14 49 -27
156 -18 147 5 -5 13 -33 19 -62z m391 -147 c-12 -15 -21 -23 -21 -19 0 4 -6 3
-12 -2 -20 -15 -48 -23 -48 -14 0 13 94 79 98 70 2 -5 -6 -21 -17 -35z"/>
<path d="M2821 2836 c-52 -18 -66 -28 -81 -56 -39 -77 -40 -76 58 -70 48 3
143 2 212 -2 68 -4 125 -6 126 -5 1 1 -2 12 -7 25 -8 20 -15 22 -83 22 l-75 0
-42 55 c-23 30 -42 55 -43 54 0 0 -30 -11 -65 -23z"/>
</g>
</svg>
